<svg width="74" height="18" viewBox="0 0 74 18" fill="none" xmlns="http://www.w3.org/2000/svg">
<path d="M7.17585 17.8557C4.91985 17.8557 3.15985 17.3437 1.89585 16.3197C0.64785 15.2957 0.0158504 13.7997 -0.000149637 11.8317H2.56785C2.61585 14.3917 4.16785 15.6717 7.22385 15.6717C8.48785 15.6717 9.45585 15.4317 10.1279 14.9517C10.8159 14.4557 11.1599 13.7437 11.1599 12.8157C11.1599 12.0637 10.8799 11.4877 10.3199 11.0877C9.75985 10.6717 8.75185 10.3037 7.29585 9.98368L5.83185 9.67168C4.07185 9.31968 2.74385 8.74368 1.84785 7.94368C0.95185 7.14368 0.50385 6.03968 0.50385 4.63168C0.50385 3.22368 1.04785 2.10368 2.13585 1.27168C3.22385 0.423679 4.69585 -0.000321388 6.55185 -0.000321388C8.79185 -0.000321388 10.4719 0.479679 11.5919 1.43968C12.7279 2.39968 13.3119 3.71968 13.3439 5.39968H10.7999C10.7199 4.29568 10.3519 3.48768 9.69585 2.97568C9.05585 2.44768 8.01585 2.18368 6.57585 2.18368C5.45585 2.18368 4.59985 2.39168 4.00785 2.80768C3.41585 3.22368 3.11985 3.81568 3.11985 4.58368C3.11985 5.36768 3.38385 5.95968 3.91185 6.35968C4.43985 6.79168 5.41585 7.15968 6.83985 7.46368L8.32785 7.77568C10.2799 8.19168 11.6799 8.79168 12.5279 9.57568C13.3919 10.3597 13.8239 11.4157 13.8239 12.7437C13.8239 14.3277 13.2319 15.5757 12.0479 16.4877C10.8799 17.3997 9.25585 17.8557 7.17585 17.8557ZM26.1347 17.4717H23.3747L19.4387 11.2077L17.3747 13.2237V17.4717H14.9987V0.383679H17.3747V10.4637L22.8227 5.08768H25.8227L21.1427 9.64768L26.1347 17.4717ZM37.1513 15.6237H37.8233V17.4717C37.4713 17.5197 37.0793 17.5437 36.6473 17.5437C35.8793 17.5437 35.3033 17.4077 34.9193 17.1357C34.5513 16.8477 34.3273 16.3997 34.2473 15.7917C33.4153 17.1037 32.0713 17.7597 30.2153 17.7597C28.8553 17.7597 27.7753 17.4397 26.9753 16.7997C26.1913 16.1437 25.7993 15.2397 25.7993 14.0877C25.7993 11.8477 27.3513 10.5677 30.4553 10.2477L32.2793 10.0557C32.9193 9.97568 33.3833 9.81568 33.6713 9.57568C33.9753 9.31968 34.1273 8.95968 34.1273 8.49568C34.1273 7.87168 33.9273 7.42368 33.5273 7.15168C33.1433 6.86368 32.4953 6.71968 31.5833 6.71968C30.5913 6.71968 29.8793 6.88768 29.4473 7.22368C29.0153 7.54368 28.7673 8.11968 28.7033 8.95168H26.3273C26.5033 6.18368 28.2553 4.79968 31.5833 4.79968C34.8473 4.79968 36.4793 6.01568 36.4793 8.44768V14.9997C36.4793 15.4157 36.7033 15.6237 37.1513 15.6237ZM30.5753 15.8877C31.5993 15.8877 32.4473 15.5997 33.1193 15.0237C33.7913 14.4477 34.1273 13.6317 34.1273 12.5757V11.2797C33.8233 11.5357 33.3113 11.7037 32.5913 11.7837L30.8633 11.9757C29.9353 12.0877 29.2713 12.3117 28.8713 12.6477C28.4713 12.9677 28.2713 13.4237 28.2713 14.0157C28.2713 14.6077 28.4633 15.0717 28.8473 15.4077C29.2473 15.7277 29.8233 15.8877 30.5753 15.8877ZM41.2356 17.4717H38.8356V0.383679H41.2356V17.4717ZM54.3855 11.3757V12.0717H45.0495C45.1615 13.2877 45.5215 14.2077 46.1295 14.8317C46.7375 15.4397 47.5615 15.7437 48.6015 15.7437C50.1695 15.7437 51.1935 15.0557 51.6735 13.6797H54.0975C53.7615 14.9437 53.1055 15.9437 52.1295 16.6797C51.1695 17.3997 49.9775 17.7597 48.5535 17.7597C46.7775 17.7597 45.3455 17.1677 44.2575 15.9837C43.1695 14.7997 42.6255 13.2317 42.6255 11.2797C42.6255 9.32768 43.1695 7.75968 44.2575 6.57568C45.3455 5.39168 46.7615 4.79968 48.5055 4.79968C50.3295 4.79968 51.7695 5.41568 52.8255 6.64768C53.8655 7.87968 54.3855 9.45568 54.3855 11.3757ZM48.5055 6.81568C47.5615 6.81568 46.7855 7.10368 46.1775 7.67968C45.5855 8.25568 45.2175 9.08768 45.0735 10.1757H51.9135C51.8015 9.16768 51.4415 8.35968 50.8335 7.75168C50.2415 7.12768 49.4655 6.81568 48.5055 6.81568ZM57.5417 17.4717H54.6377V14.6157H57.5417V17.4717Z" fill="#E43420" style="fill:#E43420;fill:color(display-p3 0.8941 0.2039 0.1255);fill-opacity:1;"/>
<path d="M69.6441 15.6237H70.3161V17.4717C69.9641 17.5197 69.5721 17.5437 69.1401 17.5437C68.3721 17.5437 67.7961 17.4077 67.4121 17.1357C67.0441 16.8477 66.8201 16.3997 66.7401 15.7917C65.9081 17.1037 64.5641 17.7597 62.7081 17.7597C61.3481 17.7597 60.2681 17.4397 59.4681 16.7997C58.6841 16.1437 58.2921 15.2397 58.2921 14.0877C58.2921 11.8477 59.8441 10.5677 62.9481 10.2477L64.7721 10.0557C65.4121 9.97568 65.8761 9.81568 66.1641 9.57568C66.4681 9.31968 66.6201 8.95968 66.6201 8.49568C66.6201 7.87168 66.4201 7.42368 66.0201 7.15168C65.6361 6.86368 64.9881 6.71968 64.0761 6.71968C63.0841 6.71968 62.3721 6.88768 61.9401 7.22368C61.5081 7.54368 61.2601 8.11968 61.1961 8.95168H58.8201C58.9961 6.18368 60.7481 4.79968 64.0761 4.79968C67.3401 4.79968 68.9721 6.01568 68.9721 8.44768V14.9997C68.9721 15.4157 69.1961 15.6237 69.6441 15.6237ZM63.0681 15.8877C64.0921 15.8877 64.9401 15.5997 65.6121 15.0237C66.2841 14.4477 66.6201 13.6317 66.6201 12.5757V11.2797C66.3161 11.5357 65.8041 11.7037 65.0841 11.7837L63.3561 11.9757C62.4281 12.0877 61.7641 12.3117 61.3641 12.6477C60.9641 12.9677 60.7641 13.4237 60.7641 14.0157C60.7641 14.6077 60.9561 15.0717 61.3401 15.4077C61.7401 15.7277 62.3161 15.8877 63.0681 15.8877ZM73.5124 3.33568H71.0644V0.767679H73.5124V3.33568ZM73.4884 17.4717H71.0884V5.08768H73.4884V17.4717Z" fill="#111111" style="fill:#111111;fill:color(display-p3 0.0682 0.0682 0.0682);fill-opacity:1;"/>
</svg>
